<?xml version="1.0" standalone="no"?>
<!DOCTYPE svg PUBLIC "-//W3C//DTD SVG 20010904//EN"
 "http://www.w3.org/TR/2001/REC-SVG-20010904/DTD/svg10.dtd">
<svg version="1.0" xmlns="http://www.w3.org/2000/svg"
 width="840.000000pt" height="364.000000pt" viewBox="0 0 840.000000 364.000000"
 preserveAspectRatio="xMidYMid meet">

<g transform="translate(0.000000,364.000000) scale(0.100000,-0.100000)"
fill="white" stroke="none">
<path d="M3740 2839 l-455 -380 -3 -65 c-2 -36 1 -64 6 -62 5 1 203 165 441
363 238 198 442 367 454 376 21 16 32 8 442 -333 231 -192 437 -363 458 -380
l37 -30 -1 69 0 68 -52 41 c-29 23 -234 193 -457 378 -222 185 -407 336 -410
335 -3 0 -210 -171 -460 -380z"/>
<path d="M4044 2847 c-3 -8 -4 -41 -2 -73 l3 -59 70 0 70 0 0 70 0 70 -68 3
c-51 2 -69 -1 -73 -11z"/>
<path d="M4210 2785 l0 -76 73 3 72 3 0 70 0 70 -72 3 -73 3 0 -76z"/>
<path d="M4040 2615 l0 -75 75 0 75 0 0 75 0 75 -75 0 -75 0 0 -75z"/>
<path d="M4210 2615 l0 -75 70 0 70 0 0 75 0 75 -70 0 -70 0 0 -75z"/>
<path d="M3560 2365 l0 -105 50 0 50 0 -2 -282 -3 -283 -612 -3 c-605 -2 -613
-2 -613 -22 0 -20 8 -20 700 -20 l700 0 0 260 0 260 29 0 c15 0 57 13 92 29
158 71 346 69 508 -4 29 -14 66 -25 82 -25 l29 0 0 -260 0 -260 700 0 c692 0
700 0 700 20 0 20 -8 20 -612 22 l-613 3 0 280 0 280 48 3 47 3 0 105 0 104
-640 0 -640 0 0 -105z"/>
<path d="M3870 2065 l0 -75 75 0 75 0 0 75 0 75 -75 0 -75 0 0 -75z"/>
<path d="M4040 2065 l0 -75 75 0 75 0 0 75 0 75 -75 0 -75 0 0 -75z"/>
<path d="M4210 2065 l0 -75 75 0 75 0 0 75 0 75 -75 0 -75 0 0 -75z"/>
<path d="M4370 2065 l0 -75 75 0 75 0 0 75 0 75 -75 0 -75 0 0 -75z"/>
<path d="M3880 1890 l0 -70 70 0 70 0 0 70 0 70 -70 0 -70 0 0 -70z"/>
<path d="M4040 1890 l0 -70 75 0 75 0 0 70 0 70 -75 0 -75 0 0 -70z"/>
<path d="M4210 1890 l0 -70 70 0 70 0 0 70 0 70 -70 0 -70 0 0 -70z"/>
<path d="M4380 1890 l0 -70 70 0 70 0 0 70 0 70 -70 0 -70 0 0 -70z"/>
<path d="M3877 1793 c-4 -3 -7 -37 -7 -75 l0 -68 75 0 75 0 0 75 0 75 -68 0
c-38 0 -72 -3 -75 -7z"/>
<path d="M4040 1725 l0 -75 75 0 75 0 0 75 0 75 -75 0 -75 0 0 -75z"/>
<path d="M4210 1725 l0 -75 75 0 76 0 -3 73 -3 72 -72 3 -73 3 0 -76z"/>
<path d="M4377 1793 c-4 -3 -7 -37 -7 -75 l0 -68 75 0 75 0 0 75 0 75 -68 0
c-38 0 -72 -3 -75 -7z"/>
<path d="M2442 1103 l3 -328 70 0 70 0 3 328 2 327 -75 0 -75 0 2 -327z"/>
<path d="M5090 1355 l0 -75 -30 0 c-29 0 -30 -1 -30 -50 0 -49 1 -50 30 -50
l30 0 0 -138 c0 -123 2 -142 23 -182 29 -57 64 -82 125 -88 54 -5 103 8 140
36 l23 18 -27 47 c-24 44 -28 47 -43 33 -23 -20 -65 -20 -85 0 -13 12 -16 41
-16 145 l0 129 60 0 60 0 0 50 0 50 -60 0 -60 0 0 75 0 75 -70 0 -70 0 0 -75z"/>
<path d="M2957 1276 c-21 -8 -46 -21 -56 -30 -24 -22 -31 -20 -31 9 0 24 -2
25 -70 25 l-70 0 2 -252 3 -253 68 -3 67 -3 0 156 c0 175 9 214 59 239 61 32
113 11 131 -52 5 -20 10 -106 10 -190 l0 -153 68 3 67 3 0 185 c-1 172 -2 188
-23 227 -42 80 -142 120 -225 89z"/>
<path d="M4030 1275 c-58 -18 -128 -77 -151 -129 -13 -28 -19 -65 -19 -117 0
-161 98 -259 260 -259 63 0 126 18 171 51 l29 20 -35 43 -35 43 -47 -23 c-53
-27 -102 -30 -143 -9 -28 15 -70 60 -70 76 0 5 83 9 185 9 l185 0 0 68 c0 83
-23 137 -76 180 -69 57 -164 74 -254 47z m161 -134 c53 -54 43 -61 -81 -61
-113 0 -120 3 -100 40 16 29 60 49 108 50 35 0 49 -6 73 -29z"/>
<path d="M4695 1278 c-16 -6 -42 -20 -57 -30 l-28 -19 0 25 c0 25 -2 26 -70
26 l-70 0 0 -255 0 -255 70 0 70 0 0 169 c0 167 0 170 25 199 45 54 129 51
154 -4 7 -15 11 -90 11 -194 l0 -170 70 0 70 0 0 183 c0 156 -3 188 -19 222
-42 91 -137 134 -226 103z"/>
<path d="M5643 1280 c-161 -38 -246 -229 -169 -379 24 -45 101 -107 151 -121
57 -16 169 -9 212 14 113 58 168 195 128 317 -43 128 -183 202 -322 169z m133
-129 c113 -69 65 -264 -66 -264 -75 0 -124 54 -124 137 0 115 100 182 190 127z"/>
<path d="M3270 1278 c0 -2 44 -115 99 -253 l98 -250 71 -3 70 -3 100 253 100
253 -60 3 c-34 2 -66 1 -72 -1 -7 -3 -39 -73 -71 -156 -33 -83 -63 -151 -66
-151 -3 0 -33 69 -65 153 l-59 152 -73 3 c-39 2 -72 2 -72 0z"/>
<path d="M1964 565 c0 -55 1 -76 3 -47 2 29 2 74 0 100 -2 26 -3 2 -3 -53z"/>
<path d="M3200 566 c0 -118 18 -129 22 -13 l3 82 30 -79 c17 -43 34 -78 39
-78 5 1 23 36 40 79 l31 78 3 -82 c4 -116 22 -105 22 13 0 83 -2 95 -16 92
-10 -2 -29 -34 -47 -81 -17 -42 -31 -76 -33 -75 -1 2 -16 37 -32 78 -18 44
-36 76 -46 78 -14 3 -16 -9 -16 -92z"/>
<path d="M5875 637 c-25 -39 -30 -111 -11 -162 10 -25 22 -45 26 -45 5 0 2 16
-6 35 -7 19 -14 55 -14 80 0 25 7 61 14 80 17 40 13 45 -9 12z"/>
<path d="M5954 565 c0 -55 1 -76 3 -47 2 29 2 74 0 100 -2 26 -3 2 -3 -53z"/>
<path d="M6022 563 l2 -98 5 85 c7 95 10 94 51 -17 12 -35 25 -63 29 -63 4 0
13 17 20 38 8 20 23 57 35 82 l21 45 5 -85 6 -85 2 98 c2 123 -13 130 -53 22
-15 -41 -31 -75 -35 -75 -4 0 -20 34 -35 75 -40 108 -55 101 -53 -22z"/>
<path d="M6266 647 c-30 -22 -17 -59 32 -85 46 -26 55 -54 22 -72 -11 -6 -32
-7 -46 -4 -19 5 -25 4 -20 -5 11 -18 71 -13 89 7 30 33 13 70 -41 86 -58 18
-40 84 20 70 21 -4 28 -3 24 5 -10 15 -58 14 -80 -2z"/>
<path d="M6405 627 c19 -46 19 -118 1 -162 -8 -19 -11 -35 -7 -35 13 0 41 76
41 108 0 40 -18 98 -35 112 -13 11 -13 8 0 -23z"/>
<path d="M2633 622 c-6 -11 -8 -23 -3 -28 5 -5 10 -34 12 -64 3 -50 5 -55 28
-57 25 -3 25 -3 3 7 -20 8 -23 17 -23 64 0 49 2 55 23 59 22 4 22 4 0 6 -12 0
-23 8 -25 16 -2 13 -5 12 -15 -3z"/>
<path d="M4753 622 c-6 -11 -8 -23 -3 -28 5 -5 10 -34 12 -64 3 -50 5 -55 28
-57 25 -3 25 -3 3 7 -20 8 -23 17 -23 64 0 49 2 55 23 59 22 4 22 4 0 6 -12 0
-23 8 -25 16 -2 13 -5 12 -15 -3z"/>
<path d="M5303 622 c-6 -11 -8 -23 -3 -28 5 -5 10 -34 12 -64 3 -50 5 -55 28
-57 25 -3 25 -3 3 7 -20 8 -23 17 -23 64 0 49 2 55 23 59 22 4 22 4 0 6 -12 0
-23 8 -25 16 -2 13 -5 12 -15 -3z"/>
<path d="M2032 540 l1 -75 6 57 c7 65 18 81 52 76 22 -3 24 -8 27 -65 2 -35 7
-63 12 -63 13 0 13 96 0 121 -12 21 -64 27 -76 8 -4 -8 -9 -7 -15 2 -5 9 -8
-16 -7 -61z"/>
<path d="M2175 589 c18 -57 43 -113 52 -116 6 -2 19 20 31 49 11 29 23 61 27
71 4 9 3 17 -2 17 -5 0 -17 -24 -27 -52 -11 -29 -22 -56 -26 -61 -3 -4 -14 17
-24 48 -9 30 -22 57 -27 61 -8 4 -9 -1 -4 -17z"/>
<path d="M2332 597 c-28 -33 -22 -97 12 -119 17 -12 64 -9 72 3 5 8 -1 10 -18
6 -28 -7 -68 16 -68 39 0 10 13 14 49 14 46 0 49 1 44 23 -3 12 -10 28 -16 35
-12 16 -62 16 -75 -1z m66 -9 c24 -24 13 -38 -28 -38 -26 0 -40 5 -40 13 0 18
21 37 40 37 9 0 21 -5 28 -12z"/>
<path d="M2470 541 c0 -84 18 -96 22 -15 2 41 8 60 21 68 31 20 51 -4 58 -70
l6 -59 -1 70 c-1 69 -1 70 -30 73 -16 2 -33 -1 -39 -7 -7 -7 -14 -7 -24 0 -11
9 -13 -2 -13 -60z"/>
<path d="M2736 588 c-48 -68 33 -160 87 -100 21 23 22 86 1 106 -23 24 -70 20
-88 -6z m88 -19 c20 -58 -28 -113 -69 -79 -18 15 -20 81 -3 98 21 21 62 10 72
-19z"/>
<path d="M2892 540 c1 -71 1 -72 7 -24 7 55 24 84 50 85 11 0 12 2 3 6 -7 3
-20 -1 -28 -8 -13 -10 -17 -10 -25 2 -5 9 -8 -13 -7 -61z"/>
<path d="M2980 604 c0 -6 11 -38 24 -71 27 -66 25 -95 -7 -111 -16 -8 -18 -11
-6 -11 9 -1 23 6 30 16 18 21 79 183 69 183 -4 0 -18 -27 -30 -61 l-23 -61
-20 53 c-19 53 -37 83 -37 63z"/>
<path d="M3450 602 c0 -4 15 -7 33 -7 26 0 33 -4 35 -22 3 -19 -1 -23 -23 -23
-54 0 -84 -37 -53 -68 16 -16 51 -15 66 0 10 10 15 10 22 -2 7 -10 10 4 10 46
0 33 -5 65 -12 72 -13 13 -78 17 -78 4z m70 -80 c0 -37 -54 -59 -66 -27 -11
27 4 45 36 45 22 0 30 -5 30 -18z"/>
<path d="M3592 540 c1 -74 1 -74 7 -20 8 67 15 80 46 80 31 0 38 -13 46 -80
l6 -55 2 61 c0 35 -4 65 -11 72 -15 15 -65 16 -74 1 -4 -8 -9 -7 -15 2 -5 9
-8 -16 -7 -61z"/>
<path d="M3760 602 c0 -4 15 -7 33 -7 26 0 33 -4 35 -22 3 -19 -1 -23 -23 -23
-54 0 -84 -37 -53 -68 16 -16 51 -15 66 0 10 10 15 10 22 -2 7 -10 10 4 10 46
0 33 -5 65 -12 72 -13 13 -78 17 -78 4z m70 -80 c0 -37 -54 -59 -66 -27 -11
27 4 45 36 45 22 0 30 -5 30 -18z"/>
<path d="M3902 598 c-14 -14 -16 -44 -3 -52 12 -8 7 -64 -8 -79 -17 -17 -13
-35 8 -47 51 -27 123 9 101 50 -7 14 -21 20 -44 20 -39 0 -50 8 -34 27 9 11 9
16 -1 22 -22 14 -9 56 18 59 37 6 52 -26 25 -52 -8 -9 -12 -16 -7 -16 16 0 33
24 33 46 0 12 6 25 13 27 6 3 -11 6 -38 6 -28 1 -56 -4 -63 -11z m78 -128 c12
-7 12 -13 4 -27 -14 -23 -67 -29 -83 -10 -25 31 41 62 79 37z"/>
<path d="M4056 594 c-22 -22 -21 -87 2 -107 21 -19 67 -23 78 -6 4 8 -1 9 -15
4 -26 -8 -71 18 -71 40 0 11 13 15 50 15 54 0 61 10 34 48 -18 26 -56 29 -78
6z m62 -6 c24 -24 13 -38 -28 -38 -43 0 -45 2 -30 31 12 21 40 25 58 7z"/>
<path d="M4190 540 c0 -83 18 -94 22 -14 3 60 20 83 52 71 12 -5 16 -20 16
-67 0 -33 4 -60 10 -60 6 0 10 24 10 53 0 55 12 77 41 77 25 0 33 -17 40 -80
l6 -55 2 61 c1 64 -9 84 -44 84 -12 0 -26 -5 -33 -12 -9 -9 -15 -9 -24 0 -7 7
-21 12 -33 12 -12 0 -26 -5 -33 -12 -9 -9 -12 -9 -12 0 0 7 -4 12 -10 12 -6 0
-10 -30 -10 -70z"/>
<path d="M4452 597 c-28 -33 -22 -97 12 -119 17 -12 64 -9 72 3 5 8 -1 10 -18
6 -28 -7 -68 16 -68 39 0 10 13 14 49 14 46 0 49 1 44 23 -3 12 -10 28 -16 35
-12 16 -62 16 -75 -1z m66 -9 c24 -24 13 -38 -28 -38 -26 0 -40 5 -40 13 0 18
21 37 40 37 9 0 21 -5 28 -12z"/>
<path d="M4590 541 c0 -41 4 -71 10 -71 6 0 10 28 10 64 0 36 -4 68 -10 71 -6
4 -10 -20 -10 -64z"/>
<path d="M4626 601 c-3 -4 5 -6 17 -4 32 6 45 -14 50 -77 l3 -55 2 61 c1 36
-3 65 -10 72 -14 14 -54 16 -62 3z"/>
<path d="M4914 595 c-10 -25 3 -44 41 -59 19 -8 35 -19 35 -24 0 -19 -30 -34
-56 -28 -17 5 -23 3 -19 -4 9 -14 58 -13 73 2 23 23 13 47 -25 66 -50 23 -49
45 2 53 l40 6 -43 2 c-30 1 -44 -4 -48 -14z"/>
<path d="M5031 602 c-1 -7 10 -40 24 -73 27 -67 23 -92 -18 -109 l-22 -9 21 0
c12 -1 26 5 32 12 12 14 72 166 72 181 0 22 -18 -12 -35 -64 l-18 -55 -14 35
c-23 59 -42 96 -42 82z"/>
<path d="M5174 595 c-10 -25 3 -44 41 -59 19 -8 35 -19 35 -24 0 -19 -30 -34
-56 -28 -17 5 -23 3 -19 -4 9 -14 58 -13 73 2 23 23 13 47 -25 66 -50 23 -49
45 2 53 l40 6 -43 2 c-30 1 -44 -4 -48 -14z"/>
<path d="M5406 588 c-22 -31 -20 -74 4 -98 22 -22 75 -27 86 -9 5 9 -1 10 -20
5 -33 -8 -66 9 -66 34 0 17 7 20 45 20 48 0 56 11 35 51 -15 27 -64 25 -84 -3z
m73 -7 c13 -24 5 -31 -36 -31 -34 0 -43 16 -21 38 18 18 46 15 57 -7z"/>
<path d="M5552 540 c1 -74 1 -74 7 -20 7 63 15 80 40 80 29 0 41 -22 42 -79
l2 -56 6 55 c8 67 15 80 46 80 27 0 32 -12 38 -90 2 -25 4 -13 3 25 -1 69 -1
70 -29 73 -16 2 -35 -2 -43 -9 -11 -9 -18 -9 -26 -1 -15 15 -55 15 -64 1 -4
-8 -9 -7 -15 2 -5 9 -8 -16 -7 -61z"/>
</g>
</svg>
